<svg width="201" height="200" viewBox="0 0 201 200" fill="none" xmlns="http://www.w3.org/2000/svg">
    <rect x="0.5" width="200" height="200" rx="15" fill="#BCBCC3"/>
    <path d="M173.897 109.584C174.167 108.225 174.95 105.003 172.529 105.453C171.815 105.586 170.06 107.248 169.311 107.76C166.897 109.412 164.164 110.587 161.302 111.209C160.631 111.355 158.821 111.756 158.247 111.695C158.116 111.683 158.023 111.657 157.965 111.528C157.965 111.528 158.655 139.212 147.522 145.356C151.632 145.659 154.77 146.31 158.636 144.523C159.923 143.929 164.147 141.371 162.738 139.69C162.04 138.855 161.265 139.264 160.439 139.212C158.353 139.079 156.267 138.885 154.309 138.11C154.035 137.893 154.431 137.417 154.695 137.385C161.192 137.843 167.575 134.345 170.89 128.837C171.373 128.034 172.456 126.045 172.525 125.179C172.611 124.047 171.615 123.455 170.584 123.587C169.587 123.714 167.726 124.648 166.552 124.943C163.94 125.599 161.166 125.817 158.504 125.313C159.729 124.921 161.017 124.73 162.223 124.265C168.483 121.852 172.62 116.039 173.899 109.588L173.897 109.584ZM147.52 145.354C146.677 145.819 145.978 146.282 145.411 146.738C146.155 146.333 146.862 145.873 147.52 145.354Z" fill="white"/>
    <path d="M39.7738 124.261C40.9796 124.726 42.2652 124.917 43.4926 125.309C40.8307 125.815 38.0567 125.597 35.4445 124.939C34.271 124.644 32.4094 123.707 31.4129 123.583C30.3839 123.451 29.3874 124.043 29.4715 125.176C29.5384 126.041 30.6234 128.03 31.1066 128.833C34.422 134.344 40.8048 137.842 47.302 137.381C47.5673 137.413 47.9621 137.889 47.6881 138.106C45.7316 138.883 43.6436 139.077 41.5577 139.208C40.7315 139.26 39.9571 138.851 39.2582 139.686C37.8496 141.368 42.0732 143.925 43.361 144.519C47.2243 146.306 50.3651 145.656 54.4743 145.352C43.3394 139.208 44.0318 111.524 44.0318 111.524C43.9736 111.653 43.8808 111.676 43.7493 111.692C43.1755 111.752 41.3657 111.351 40.6948 111.205C37.8324 110.583 35.0993 109.408 32.6856 107.757C31.937 107.244 30.1812 105.582 29.4672 105.449C27.0469 104.999 27.8299 108.222 28.0996 109.58C29.3787 116.031 33.5182 121.843 39.7759 124.256L39.7738 124.261ZM56.5818 146.738C56.0123 146.282 55.3156 145.819 54.4722 145.354C55.1322 145.873 55.8376 146.334 56.5818 146.738Z" fill="white"/>
    <path d="M158.192 99.1847C156.346 93.3145 153.682 87.3883 149.465 82.8442C141.902 76.3734 135.457 73.1638 135.457 73.1638L134.734 72.8366C129.374 70.4666 123.664 69.1298 117.859 68.258C105.659 66.4261 91.9265 66.5983 79.8554 69.1879C76.4731 69.9134 73.1404 70.8713 69.935 72.1499C69.139 72.4685 68.3538 72.8043 67.5751 73.1638C60.1698 75.9127 53.3448 82.9475 53.3448 82.9475C49.4879 87.7629 46.4205 93.1875 44.8394 99.1847C44.7445 99.3569 44.6151 99.3806 44.4295 99.3849C44.4295 99.3849 40.3505 136.324 55.3703 146.949C56.0131 147.403 56.5653 147.879 57.0313 148.374C63.6729 153.478 73.6258 154.871 81.6933 155.721C94.8278 157.103 109.917 157.023 123.04 155.48C130.109 154.649 138.528 153.345 144.691 149.315C145.429 148.62 146.343 147.903 147.461 147.167C162.2 137.439 158.192 99.1847 158.192 99.1847Z" fill="white"/>
    <path d="M143.01 77.7403C146.565 82.9561 147.752 90.6991 147.752 90.6991C155.664 92.066 164.07 88.2623 168.311 81.4213C172.906 74.012 172.194 61.2642 167.474 54.0529C166.262 52.1995 164.049 50.3612 162.511 53.0412C161.13 55.4456 160.828 58.8317 159.122 61.6344C158.36 62.8829 154.982 67.3432 153.569 67.5089C152.601 67.623 152.271 65.1604 152.174 64.4135C151.889 62.2221 152.407 60.8638 152.471 58.9329C152.549 56.5478 150.105 56.9826 148.904 58.2441C144.658 62.7 142.195 71.6807 143.01 77.7403Z" fill="white"/>
    <path d="M60.6435 77.7403C57.0886 82.9561 55.9022 90.6991 55.9022 90.6991C47.99 92.066 39.5838 88.2623 35.3429 81.4213C30.7483 74.012 31.4602 61.2642 36.1799 54.0529C37.3922 52.1995 39.6054 50.3612 41.1434 53.0412C42.5239 55.4456 42.8259 58.8317 44.5322 61.6344C45.2936 62.8829 48.6716 67.3432 50.0845 67.5089C51.053 67.623 51.3831 65.1604 51.4801 64.4135C51.7649 62.2221 51.2472 60.8638 51.1825 58.9329C51.1048 56.5478 53.5488 56.9826 54.7503 58.2441C58.9954 62.7 61.4588 71.6807 60.6435 77.7403Z" fill="white"/>
    <path d="M122.094 57.5793C126.046 57.5793 129.249 54.3825 129.249 50.4391C129.249 46.4956 126.046 43.2988 122.094 43.2988C118.142 43.2988 114.939 46.4956 114.939 50.4391C114.939 54.3825 118.142 57.5793 122.094 57.5793Z" fill="white"/>
    <path d="M124.831 53.1074H119.357V71.0431H124.831V53.1074Z" fill="white"/>
    <path d="M81.0685 57.5793C85.0202 57.5793 88.2236 54.3825 88.2236 50.4391C88.2236 46.4956 85.0202 43.2988 81.0685 43.2988C77.1169 43.2988 73.9135 46.4956 73.9135 50.4391C73.9135 54.3825 77.1169 57.5793 81.0685 57.5793Z" fill="white"/>
    <path d="M83.8061 53.1074H78.3314V71.0431H83.8061V53.1074Z" fill="white"/>
    <path d="M103.763 80.3156C108.642 80.3156 112.541 81.5924 115.459 84.146C118.423 86.6996 119.905 90.302 119.905 94.9532C119.905 99.2396 118.491 102.591 115.664 105.008C112.883 107.379 109.189 108.588 104.583 108.633L104.241 113.763H93.9814L93.6394 101.041H97.7434C101.255 101.041 103.922 100.608 105.746 99.7412C107.616 98.8748 108.551 97.3016 108.551 95.0216C108.551 93.4256 108.117 92.1716 107.251 91.2596C106.385 90.3476 105.176 89.8916 103.626 89.8916C101.984 89.8916 100.707 90.3704 99.7954 91.328C98.8834 92.24 98.4274 93.494 98.4274 95.09H87.415C87.3238 92.3084 87.8938 89.8004 89.125 87.566C90.4018 85.3316 92.2714 83.576 94.7338 82.2992C97.2418 80.9768 100.251 80.3156 103.763 80.3156ZM99.2482 131.547C97.1962 131.547 95.509 130.954 94.1866 129.769C92.9098 128.538 92.2714 127.033 92.2714 125.254C92.2714 123.43 92.9098 121.903 94.1866 120.672C95.509 119.44 97.1962 118.825 99.2482 118.825C101.255 118.825 102.896 119.44 104.173 120.672C105.495 121.903 106.157 123.43 106.157 125.254C106.157 127.033 105.495 128.538 104.173 129.769C102.896 130.954 101.255 131.547 99.2482 131.547Z" fill="#BCBCC3"/>
</svg>
