<svg width="169" height="53" viewBox="0 0 169 53" fill="none" xmlns="http://www.w3.org/2000/svg">
    <rect y="0.880859" width="169" height="52.1195" rx="26.0598" fill="#42001E" fill-opacity="0.5"/>
    <g clip-path="url(#clip0_1_16181)">
        <path d="M59.1131 17.2667C58.8837 16.419 58.4363 15.6462 57.8153 15.0252C57.1944 14.4042 56.4215 13.9567 55.5738 13.7273C52.4704 12.8809 39.98 12.8809 39.98 12.8809C39.98 12.8809 27.489 12.9065 24.3855 13.7529C23.5378 13.9823 22.765 14.4298 22.144 15.0509C21.523 15.6719 21.0756 16.4448 20.8462 17.2925C19.9075 22.8067 19.5434 31.2092 20.872 36.5028C21.1014 37.3505 21.5489 38.1234 22.1698 38.7444C22.7908 39.3654 23.5636 39.8128 24.4113 40.0423C27.5148 40.8887 40.0055 40.8887 40.0055 40.8887C40.0055 40.8887 52.496 40.8887 55.5993 40.0423C56.447 39.8129 57.2199 39.3654 57.8409 38.7444C58.4619 38.1234 58.9094 37.3505 59.1388 36.5028C60.1289 30.9808 60.434 22.5835 59.1131 17.2667Z" fill="#FF0000"/>
        <path d="M36.0045 32.8861L46.3662 26.8845L36.0045 20.8828V32.8861Z" fill="white"/>
    </g>
    <path d="M80.704 21.2734V23.0814H77.728V32.4414H75.488V23.0814H72.512V21.2734H80.704ZM91.5064 23.5774V32.4414H89.2504V31.3214C88.9624 31.7054 88.5837 32.0094 88.1144 32.2334C87.6557 32.4467 87.1544 32.5534 86.6104 32.5534C85.917 32.5534 85.3037 32.4094 84.7704 32.1214C84.237 31.8227 83.8157 31.3907 83.5064 30.8254C83.2077 30.2494 83.0584 29.5667 83.0584 28.7774V23.5774H85.2984V28.4574C85.2984 29.1614 85.4744 29.7054 85.8264 30.0894C86.1784 30.4627 86.6584 30.6494 87.2664 30.6494C87.885 30.6494 88.3704 30.4627 88.7224 30.0894C89.0744 29.7054 89.2504 29.1614 89.2504 28.4574V23.5774H91.5064ZM97.1245 25.4174V29.7054C97.1245 30.0041 97.1938 30.2227 97.3325 30.3614C97.4818 30.4894 97.7272 30.5534 98.0685 30.5534H99.1085V32.4414H97.7005C95.8125 32.4414 94.8685 31.5241 94.8685 29.6894V25.4174H93.8125V23.5774H94.8685V21.3854H97.1245V23.5774H99.1085V25.4174H97.1245ZM105.456 32.5854C104.602 32.5854 103.834 32.3987 103.152 32.0254C102.469 31.6414 101.93 31.1027 101.536 30.4094C101.152 29.7161 100.96 28.9161 100.96 28.0094C100.96 27.1027 101.157 26.3027 101.552 25.6094C101.957 24.9161 102.506 24.3827 103.2 24.0094C103.893 23.6254 104.666 23.4334 105.52 23.4334C106.373 23.4334 107.146 23.6254 107.84 24.0094C108.533 24.3827 109.077 24.9161 109.472 25.6094C109.877 26.3027 110.08 27.1027 110.08 28.0094C110.08 28.9161 109.872 29.7161 109.456 30.4094C109.05 31.1027 108.496 31.6414 107.792 32.0254C107.098 32.3987 106.32 32.5854 105.456 32.5854ZM105.456 30.6334C105.861 30.6334 106.24 30.5374 106.592 30.3454C106.954 30.1427 107.242 29.8441 107.456 29.4494C107.669 29.0547 107.776 28.5747 107.776 28.0094C107.776 27.1667 107.552 26.5214 107.104 26.0734C106.666 25.6147 106.128 25.3854 105.488 25.3854C104.848 25.3854 104.309 25.6147 103.872 26.0734C103.445 26.5214 103.232 27.1667 103.232 28.0094C103.232 28.8521 103.44 29.5027 103.856 29.9614C104.282 30.4094 104.816 30.6334 105.456 30.6334ZM114.763 24.9534C115.051 24.4841 115.424 24.1161 115.883 23.8494C116.352 23.5827 116.885 23.4494 117.483 23.4494V25.8014H116.891C116.187 25.8014 115.653 25.9667 115.291 26.2974C114.939 26.6281 114.763 27.2041 114.763 28.0254V32.4414H112.523V23.5774H114.763V24.9534ZM120.928 22.5214C120.533 22.5214 120.202 22.3987 119.936 22.1534C119.68 21.8974 119.552 21.5827 119.552 21.2094C119.552 20.8361 119.68 20.5267 119.936 20.2814C120.202 20.0254 120.533 19.8974 120.928 19.8974C121.322 19.8974 121.648 20.0254 121.904 20.2814C122.17 20.5267 122.304 20.8361 122.304 21.2094C122.304 21.5827 122.17 21.8974 121.904 22.1534C121.648 22.3987 121.322 22.5214 120.928 22.5214ZM122.032 23.5774V32.4414H119.792V23.5774H122.032ZM124.469 27.9774C124.469 27.0814 124.645 26.2867 124.997 25.5934C125.359 24.9001 125.845 24.3667 126.453 23.9934C127.071 23.6201 127.759 23.4334 128.517 23.4334C129.178 23.4334 129.754 23.5667 130.245 23.8334C130.746 24.1001 131.146 24.4361 131.445 24.8414V23.5774H133.701V32.4414H131.445V31.1454C131.157 31.5614 130.757 31.9081 130.245 32.1854C129.743 32.4521 129.162 32.5854 128.501 32.5854C127.754 32.5854 127.071 32.3934 126.453 32.0094C125.845 31.6254 125.359 31.0867 124.997 30.3934C124.645 29.6894 124.469 28.8841 124.469 27.9774ZM131.445 28.0094C131.445 27.4654 131.338 27.0014 131.125 26.6174C130.911 26.2227 130.623 25.9241 130.261 25.7214C129.898 25.5081 129.509 25.4014 129.093 25.4014C128.677 25.4014 128.293 25.5027 127.941 25.7054C127.589 25.9081 127.301 26.2067 127.077 26.6014C126.863 26.9854 126.757 27.4441 126.757 27.9774C126.757 28.5107 126.863 28.9801 127.077 29.3854C127.301 29.7801 127.589 30.0841 127.941 30.2974C128.303 30.5107 128.687 30.6174 129.093 30.6174C129.509 30.6174 129.898 30.5161 130.261 30.3134C130.623 30.1001 130.911 29.8014 131.125 29.4174C131.338 29.0227 131.445 28.5534 131.445 28.0094ZM138.928 20.6014V32.4414H136.688V20.6014H138.928Z" fill="white"/>
    <path d="M72 34.0414H140.032V34.8414H72V34.0414Z" fill="white"/>
    <defs>
        <clipPath id="clip0_1_16181">
            <rect width="40" height="28.1195" fill="white" transform="translate(20 12.8809)"/>
        </clipPath>
    </defs>
</svg>
