<svg width="22" height="22" viewBox="0 0 22 22" fill="none" xmlns="http://www.w3.org/2000/svg">
    <path d="M3.85777 20.0293L4.24985 19.2598H4.24985L3.85777 20.0293ZM1.97065 18.1422L2.74016 17.7501H2.74016L1.97065 18.1422ZM18.1422 1.97065L17.7501 2.74016V2.74016L18.1422 1.97065ZM20.0293 3.85777L19.2598 4.24985V4.24985L20.0293 3.85777ZM3.85777 1.97065L4.24985 2.74016L3.85777 1.97065ZM1.97065 3.85777L2.74016 4.24985L1.97065 3.85777ZM19.6364 11C19.6364 11.477 20.023 11.8636 20.5 11.8636C20.977 11.8636 21.3636 11.477 21.3636 11H19.6364ZM11 21.3636C11.477 21.3636 11.8636 20.977 11.8636 20.5C11.8636 20.023 11.477 19.6364 11 19.6364V21.3636ZM1.5 6.68182C1.02303 6.68182 0.636364 7.06848 0.636364 7.54545C0.636364 8.02243 1.02303 8.40909 1.5 8.40909V6.68182ZM20.5 8.40909C20.977 8.40909 21.3636 8.02243 21.3636 7.54545C21.3636 7.06848 20.977 6.68182 20.5 6.68182V8.40909ZM19.8893 21.1107C20.2266 21.448 20.7734 21.448 21.1107 21.1107C21.448 20.7734 21.448 20.2266 21.1107 19.8893L19.8893 21.1107ZM5.81818 4.95455C5.81818 4.47757 5.43152 4.09091 4.95455 4.09091C4.47757 4.09091 4.09091 4.47757 4.09091 4.95455H5.81818ZM4.09091 4.96318C4.09091 5.44016 4.47757 5.82682 4.95455 5.82682C5.43152 5.82682 5.81818 5.44016 5.81818 4.96318H4.09091ZM8.40909 4.95455C8.40909 4.47757 8.02243 4.09091 7.54545 4.09091C7.06848 4.09091 6.68182 4.47757 6.68182 4.95455H8.40909ZM6.68182 4.96318C6.68182 5.44016 7.06848 5.82682 7.54545 5.82682C8.02243 5.82682 8.40909 5.44016 8.40909 4.96318H6.68182ZM11 4.95455C11 4.47757 10.6133 4.09091 10.1364 4.09091C9.65939 4.09091 9.27273 4.47757 9.27273 4.95455H11ZM9.27273 4.96318C9.27273 5.44016 9.65939 5.82682 10.1364 5.82682C10.6133 5.82682 11 5.44016 11 4.96318H9.27273ZM8.40909 1.5V2.36364H13.5909V1.5V0.636364H8.40909V1.5ZM1.5 13.5909H2.36364V8.40909H1.5H0.636364V13.5909H1.5ZM8.40909 20.5V19.6364C7.18564 19.6364 6.31999 19.6357 5.64325 19.5804C4.97659 19.5259 4.56967 19.4228 4.24985 19.2598L3.85777 20.0293L3.46569 20.7989C4.06958 21.1066 4.72912 21.2387 5.50259 21.3019C6.26598 21.3643 7.21414 21.3636 8.40909 21.3636V20.5ZM1.5 13.5909H0.636364C0.636364 14.7859 0.635692 15.734 0.698063 16.4974C0.761259 17.2709 0.893448 17.9304 1.20115 18.5343L1.97065 18.1422L2.74016 17.7501C2.57721 17.4303 2.47407 17.0234 2.4196 16.3568C2.36431 15.68 2.36364 14.8144 2.36364 13.5909H1.5ZM3.85777 20.0293L4.24985 19.2598C3.59984 18.9286 3.07136 18.4002 2.74016 17.7501L1.97065 18.1422L1.20115 18.5343C1.69795 19.5093 2.49066 20.3021 3.46569 20.7989L3.85777 20.0293ZM13.5909 1.5V2.36364C14.8144 2.36364 15.68 2.36431 16.3568 2.4196C17.0234 2.47407 17.4303 2.57721 17.7501 2.74016L18.1422 1.97065L18.5343 1.20115C17.9304 0.893448 17.2709 0.761259 16.4974 0.698063C15.734 0.635692 14.7859 0.636364 13.5909 0.636364V1.5ZM20.5 8.40909H21.3636C21.3636 7.21414 21.3643 6.26598 21.3019 5.50259C21.2387 4.72912 21.1066 4.06958 20.7989 3.46569L20.0293 3.85777L19.2598 4.24985C19.4228 4.56967 19.5259 4.97659 19.5804 5.64325C19.6357 6.31999 19.6364 7.18564 19.6364 8.40909H20.5ZM18.1422 1.97065L17.7501 2.74016C18.4002 3.07136 18.9286 3.59984 19.2598 4.24985L20.0293 3.85777L20.7989 3.46569C20.3021 2.49066 19.5093 1.69795 18.5343 1.20115L18.1422 1.97065ZM8.40909 1.5V0.636364C7.21414 0.636364 6.26598 0.635692 5.50259 0.698063C4.72912 0.761259 4.06958 0.893448 3.46569 1.20115L3.85777 1.97065L4.24985 2.74016C4.56967 2.57721 4.97659 2.47407 5.64325 2.4196C6.31998 2.36431 7.18564 2.36364 8.40909 2.36364V1.5ZM1.5 8.40909H2.36364C2.36364 7.18564 2.36431 6.31998 2.4196 5.64325C2.47407 4.97659 2.57721 4.56967 2.74016 4.24985L1.97065 3.85777L1.20115 3.46569C0.893448 4.06958 0.761259 4.72912 0.698063 5.50259C0.635692 6.26598 0.636364 7.21414 0.636364 8.40909H1.5ZM3.85777 1.97065L3.46569 1.20115C2.49066 1.69795 1.69795 2.49066 1.20115 3.46569L1.97065 3.85777L2.74016 4.24985C3.07136 3.59984 3.59984 3.07136 4.24985 2.74016L3.85777 1.97065ZM20.5 8.40909H19.6364V11H20.5H21.3636V8.40909H20.5ZM11 20.5V19.6364H8.40909V20.5V21.3636H11V20.5ZM1.5 7.54545V8.40909H20.5V7.54545V6.68182H1.5V7.54545ZM18.8235 14.9118H17.9599C17.9599 16.5952 16.5952 17.9599 14.9118 17.9599V18.8235V19.6872C17.5491 19.6872 19.6872 17.5491 19.6872 14.9118H18.8235ZM14.9118 18.8235V17.9599C13.2283 17.9599 11.8636 16.5952 11.8636 14.9118H11H10.1364C10.1364 17.5491 12.2744 19.6872 14.9118 19.6872V18.8235ZM11 14.9118H11.8636C11.8636 13.2283 13.2283 11.8636 14.9118 11.8636V11V10.1364C12.2744 10.1364 10.1364 12.2744 10.1364 14.9118H11ZM14.9118 11V11.8636C16.5952 11.8636 17.9599 13.2283 17.9599 14.9118H18.8235H19.6872C19.6872 12.2744 17.5491 10.1364 14.9118 10.1364V11ZM17.7059 17.7059L17.0952 18.3166L19.8893 21.1107L20.5 20.5L21.1107 19.8893L18.3166 17.0952L17.7059 17.7059ZM4.95455 4.95455H4.09091V4.96318H4.95455H5.81818V4.95455H4.95455ZM7.54545 4.95455H6.68182V4.96318H7.54545H8.40909V4.95455H7.54545ZM10.1364 4.95455H9.27273V4.96318H10.1364H11V4.95455H10.1364Z" fill="white"/>
</svg>
