<svg width="20" height="20" viewBox="0 0 20 20" fill="none" xmlns="http://www.w3.org/2000/svg">
    <path fill-rule="evenodd" clip-rule="evenodd" d="M8.16634 0.833984H11.833C12.8455 0.833984 13.6663 1.6548 13.6663 2.66732V9.08398H17.333C18.3455 9.08398 19.1663 9.9048 19.1663 10.9173V18.2507C19.1663 18.7569 18.7559 19.1673 18.2497 19.1673H1.74967C1.24341 19.1673 0.833008 18.7569 0.833008 18.2507V6.79232C0.833008 5.7798 1.65382 4.95898 2.66634 4.95898H6.33301V2.66732C6.33301 1.6548 7.15382 0.833984 8.16634 0.833984ZM8.16634 17.334H11.833V2.66732H8.16634V17.334ZM6.33301 6.79232H2.66634V17.334H6.33301V6.79232ZM13.6663 17.334H17.333V10.9173H13.6663V17.334Z" fill="white"/>
</svg>
