<svg width="22" height="22" viewBox="0 0 22 22" fill="none" xmlns="http://www.w3.org/2000/svg">
    <path d="M10.9997 11.9173C12.5185 11.9173 13.7497 10.6861 13.7497 9.16732C13.7497 7.64853 12.5185 6.41732 10.9997 6.41732C9.48089 6.41732 8.24967 7.64853 8.24967 9.16732M10.8277 14.9537H11.1714M10.8277 15.2975H11.1714M20.1663 11.0007C20.1663 16.0633 16.0623 20.1673 10.9997 20.1673C5.93706 20.1673 1.83301 16.0633 1.83301 11.0007C1.83301 5.93804 5.93706 1.83398 10.9997 1.83398C16.0623 1.83398 20.1663 5.93804 20.1663 11.0007ZM11.458 15.1257C11.458 15.3788 11.2528 15.584 10.9997 15.584C10.7465 15.584 10.5413 15.3788 10.5413 15.1257C10.5413 14.8725 10.7465 14.6673 10.9997 14.6673C11.2528 14.6673 11.458 14.8725 11.458 15.1257Z" stroke="white" stroke-width="1.83333" stroke-linecap="round"/>
</svg>
