<svg width="22" height="22" viewBox="0 0 22 22" fill="none" xmlns="http://www.w3.org/2000/svg">
    <path d="M1.83301 18.3327V5.49935C1.83301 4.48683 2.65382 3.66602 3.66634 3.66602H6.57362C7.05985 3.66602 7.52616 3.85917 7.86998 4.20299L8.62937 4.96238C8.97319 5.3062 9.4395 5.49935 9.92573 5.49935H16.4997C17.5122 5.49935 18.333 6.32016 18.333 7.33268V9.16602M1.92151 18.0377L4.19105 10.4725C4.42369 9.69707 5.13745 9.16602 5.94706 9.16602H17.8182C19.011 9.16602 19.8861 10.2869 19.5968 11.444L18.2218 16.944C18.0178 17.7601 17.2845 18.3327 16.4433 18.3327H2.14101C1.9875 18.3327 1.8774 18.1847 1.92151 18.0377Z" stroke="white" stroke-width="1.83333" stroke-linecap="round"/>
</svg>
