<svg width="36" height="31" viewBox="0 0 36 31" fill="none" xmlns="http://www.w3.org/2000/svg">
    <path d="M35.9173 16.3599C35.9836 16.0254 36.176 15.2317 35.5812 15.3425C35.4057 15.3754 34.9742 15.7847 34.7902 15.9109C34.1969 16.3175 33.5252 16.607 32.8217 16.7602C32.6568 16.7962 32.212 16.8949 32.071 16.88C32.0387 16.8768 32.0159 16.8705 32.0015 16.8387C32.0015 16.8387 32.1712 23.6571 29.435 25.1701C30.445 25.2449 31.2164 25.405 32.1664 24.965C32.4829 24.8186 33.521 24.1888 33.1748 23.7747C33.003 23.569 32.8127 23.6698 32.6096 23.6571C32.097 23.6242 31.5843 23.5765 31.1029 23.3856C31.0356 23.3321 31.1331 23.2149 31.1978 23.2069C32.7947 23.3199 34.3634 22.4584 35.1783 21.1017C35.297 20.9039 35.5632 20.4141 35.5801 20.2009C35.6013 19.9221 35.3564 19.7763 35.103 19.8086C34.8581 19.8399 34.4005 20.07 34.1121 20.1426C33.4701 20.3043 32.7883 20.3579 32.1341 20.2338C32.4352 20.1373 32.7517 20.0901 33.0481 19.9756C34.5866 19.3813 35.6035 17.9499 35.9178 16.361L35.9173 16.3599ZM29.4345 25.1696C29.2272 25.2841 29.0554 25.3981 28.916 25.5105C29.0989 25.4108 29.2728 25.2974 29.4345 25.1696Z" fill="#DD4444"/>
    <path d="M2.95315 19.9756C3.24951 20.0901 3.56549 20.1373 3.86715 20.2338C3.21293 20.3584 2.53114 20.3048 1.88912 20.1426C1.60071 20.07 1.14319 19.8394 0.898251 19.8086C0.645365 19.7763 0.400431 19.9221 0.421107 20.2009C0.437542 20.4141 0.704213 20.9039 0.822968 21.1017C1.63782 22.4589 3.20657 23.3204 4.80341 23.2069C4.86862 23.2149 4.96564 23.3321 4.89831 23.3856C4.41745 23.577 3.90426 23.6247 3.39159 23.6571C3.18854 23.6698 2.99822 23.569 2.82644 23.7747C2.48025 24.1888 3.5183 24.8186 3.83481 24.965C4.78433 25.405 5.55624 25.2449 6.56619 25.1701C3.82951 23.6571 3.99969 16.8387 3.99969 16.8387C3.98537 16.8705 3.96258 16.8763 3.93024 16.88C3.78921 16.8949 3.34441 16.7962 3.17953 16.7602C2.47601 16.607 1.8043 16.3175 1.21105 15.9109C1.02708 15.7847 0.59553 15.3754 0.420047 15.3425C-0.174793 15.2317 0.0176551 16.0254 0.0839251 16.3599C0.39831 17.9488 1.41569 19.3802 2.95368 19.9746L2.95315 19.9756ZM7.08416 25.5116C6.9442 25.3992 6.77296 25.2852 6.56566 25.1707C6.72789 25.2984 6.90125 25.4119 7.08416 25.5116Z" fill="#DD4444"/>
    <path d="M32.057 13.7998C31.6032 12.3541 30.9484 10.8946 29.912 9.77539C28.0532 8.18173 26.4691 7.39126 26.4691 7.39126L26.2915 7.31067C24.974 6.72697 23.5707 6.39774 22.144 6.18302C19.1455 5.73186 15.7705 5.77427 12.8037 6.41205C11.9724 6.59072 11.1533 6.82664 10.3655 7.14155C10.1698 7.22002 9.97687 7.30272 9.78548 7.39126C7.96544 8.06827 6.28801 9.80083 6.28801 9.80083C5.34008 10.9868 4.5862 12.3228 4.19759 13.7998C4.17426 13.8422 4.14245 13.8481 4.09686 13.8491C4.09686 13.8491 3.09433 22.9467 6.78583 25.5636C6.94382 25.6754 7.07954 25.7926 7.19405 25.9145C8.82642 27.1715 11.2726 27.5145 13.2554 27.724C16.4835 28.0643 20.192 28.0447 23.4175 27.6646C25.1548 27.4599 27.224 27.1387 28.7387 26.1462C28.92 25.975 29.1448 25.7984 29.4194 25.6171C33.042 23.2213 32.057 13.7998 32.057 13.7998ZM25.9676 24.3368C23.1476 26.0927 16.6033 26.0089 13.3858 25.422C8.46485 24.525 7.25926 21.2921 7.50579 16.6293C7.79632 11.1384 11.3791 9.79818 16.289 9.5787C19.84 9.41965 25.6961 9.3396 27.7097 12.8498C29.4088 15.8123 29.1692 22.3434 25.9676 24.3368Z" fill="#DD4444"/>
    <path d="M12.8452 13.3355C13.949 13.1759 14.6355 13.9431 14.714 14.9875C14.802 16.1681 14.8152 18.2681 14.714 19.4392C14.5491 21.3483 11.6528 21.554 11.4795 19.2277C11.4137 18.3476 11.3607 15.2716 11.5585 14.5374C11.7149 13.9568 12.2376 13.4235 12.8457 13.3355H12.8452Z" fill="#DD4444"/>
    <path d="M22.8026 13.3359C23.5199 13.2394 24.251 13.5946 24.5362 14.2759C24.8506 15.0277 24.7615 17.6562 24.7244 18.5925C24.6952 19.3315 24.7382 20.0774 24.1121 20.5747C23.1217 21.361 21.702 20.7566 21.4915 19.5441C21.6277 18.0215 21.3043 16.1691 21.5053 14.6862C21.5949 14.0246 22.1282 13.4266 22.8026 13.3359Z" fill="#DD4444"/>
    <path d="M28.3262 8.51657C29.1999 9.80115 29.4915 11.7081 29.4915 11.7081C31.4361 12.0448 33.5022 11.108 34.5445 9.42314C35.6737 7.59833 35.4987 4.45872 34.3388 2.68269C34.0408 2.22622 33.4969 1.77346 33.1189 2.43351C32.7796 3.0257 32.7053 3.85964 32.286 4.54991C32.0988 4.8574 31.2686 5.95589 30.9213 5.99672C30.6833 6.02482 30.6022 5.41831 30.5783 5.23435C30.5083 4.69464 30.6356 4.36011 30.6515 3.88456C30.6706 3.29714 30.0699 3.40423 29.7746 3.71491C28.7312 4.81234 28.1258 7.02417 28.3262 8.51657Z" fill="#DD4444"/>
    <path d="M8.08231 8.51657C7.20861 9.80115 6.91702 11.7081 6.91702 11.7081C4.97239 12.0448 2.90636 11.108 1.86406 9.42314C0.73482 7.59833 0.909773 4.45872 2.06976 2.68269C2.36771 2.22622 2.91166 1.77346 3.28966 2.43351C3.62896 3.0257 3.70319 3.85964 4.12254 4.54991C4.30969 4.8574 5.13992 5.95589 5.48718 5.99672C5.72522 6.02482 5.80633 5.41831 5.83019 5.23435C5.90017 4.69464 5.77293 4.36011 5.75703 3.88456C5.73794 3.29714 6.33861 3.40423 6.63391 3.71491C7.67727 4.81234 8.28271 7.02417 8.08231 8.51657Z" fill="#DD4444"/>
    <path d="M23.1853 3.55224C24.1565 3.55224 24.9438 2.76491 24.9438 1.7937C24.9438 0.822482 24.1565 0.0351562 23.1853 0.0351562C22.2141 0.0351562 21.4268 0.822482 21.4268 1.7937C21.4268 2.76491 22.2141 3.55224 23.1853 3.55224Z" fill="#DD4444"/>
    <path d="M23.8582 2.45117H22.5127V6.86847H23.8582V2.45117Z" fill="#DD4444"/>
    <path d="M13.1023 3.55224C14.0735 3.55224 14.8608 2.76491 14.8608 1.7937C14.8608 0.822482 14.0735 0.0351562 13.1023 0.0351562C12.1311 0.0351562 11.3438 0.822482 11.3438 1.7937C11.3438 2.76491 12.1311 3.55224 13.1023 3.55224Z" fill="#DD4444"/>
    <path d="M13.7752 2.45117H12.4297V6.86847H13.7752V2.45117Z" fill="#DD4444"/>
</svg>
