<svg width="23" height="22" viewBox="0 0 23 22" fill="none" xmlns="http://www.w3.org/2000/svg">
    <path d="M7.16667 2.75L5.33333 4.58333M5.33333 4.58333L3.5 6.41666M5.33333 4.58333L7.16667 6.41667M5.33333 4.58333L3.5 2.75M10.8333 4.58333H20.9167M4.98936 10.6562H5.67686M4.98936 11.3437H5.67686M4.98936 17.0729H5.67686M4.98936 17.7604H5.67686M10.8333 11H20.9167M10.8333 17.4167H20.9167M6.25 11C6.25 11.5063 5.83959 11.9167 5.33333 11.9167C4.82707 11.9167 4.41667 11.5063 4.41667 11C4.41667 10.4937 4.82707 10.0833 5.33333 10.0833C5.83959 10.0833 6.25 10.4937 6.25 11ZM6.25 17.4167C6.25 17.9229 5.83959 18.3333 5.33333 18.3333C4.82707 18.3333 4.41667 17.9229 4.41667 17.4167C4.41667 16.9104 4.82707 16.5 5.33333 16.5C5.83959 16.5 6.25 16.9104 6.25 17.4167Z" stroke="white" stroke-width="1.83333" stroke-linecap="round"/>
</svg>
