<svg width="22" height="22" viewBox="0 0 22 22" fill="none" xmlns="http://www.w3.org/2000/svg">
    <path fill-rule="evenodd" clip-rule="evenodd" d="M7.60834 12.558V9.44134H3.66668V12.558H7.60834ZM9.44168 12.558H18.3333V9.44134H9.44168V12.558ZM7.60834 3.66634H4.58334C4.07708 3.66634 3.66668 4.07675 3.66668 4.58301V7.60801H7.60834V3.66634ZM9.44168 3.66634V7.60801H18.3333V4.58301C18.3333 4.07675 17.9229 3.66634 17.4167 3.66634H9.44168ZM7.60834 18.333V14.3913H3.66668V17.4163C3.66668 17.9226 4.07708 18.333 4.58334 18.333H7.60834ZM9.44168 18.333H17.4167C17.9229 18.333 18.3333 17.9226 18.3333 17.4163V14.3913H9.44168V18.333ZM1.83334 17.4163V4.58301C1.83334 3.06422 3.06456 1.83301 4.58334 1.83301H17.4167C18.9355 1.83301 20.1667 3.06422 20.1667 4.58301V17.4163C20.1667 18.9351 18.9355 20.1663 17.4167 20.1663H4.58334C3.06456 20.1663 1.83334 18.9351 1.83334 17.4163Z" fill="white"/>
</svg>
