<svg xmlns="http://www.w3.org/2000/svg" x="0px" y="0px" width="100" height="100" viewBox="0,0,256,256">
    <g fill="#ffffff" fill-rule="nonzero" stroke="none" stroke-width="1" stroke-linecap="butt" stroke-linejoin="miter" stroke-miterlimit="10" stroke-dasharray="" stroke-dashoffset="0" font-family="none" font-weight="none" font-size="none" text-anchor="none" style="mix-blend-mode: normal"><g transform="scale(8,8)"><path d="M16,3c-1.17472,0 -2.34834,0.21099 -3.46875,0.63281c-0.21911,0.08263 -0.40228,0.23953 -0.51758,0.44336c-0.50908,0.89774 -0.91057,1.83437 -1.29687,2.77539c-1.00699,-0.13857 -2.01923,-0.25929 -3.05273,-0.26758c-0.37113,-0.00273 -0.71324,0.20029 -0.88867,0.52734c-1.59234,1.40497 -2.66731,3.2756 -3.08789,5.34961c-0.19547,0.3164 -0.19924,0.71513 -0.00977,1.03516c0.52543,0.88759 1.13805,1.70159 1.76172,2.50391c-0.62349,0.80258 -1.23637,1.61728 -1.76172,2.50391c-0.1879,0.31905 -0.18414,0.71581 0.00977,1.03125c0.42033,2.07684 1.4948,3.95133 3.08984,5.35742c0.00065,0.0013 0.0013,0.00261 0.00195,0.00391c0.17685,0.32279 0.51671,0.52236 0.88477,0.51953c1.03351,-0.0083 2.04574,-0.12901 3.05273,-0.26758c0.38631,0.94102 0.78779,1.87765 1.29688,2.77539c0.1153,0.20382 0.29847,0.36073 0.51758,0.44336c2.24082,0.84364 4.69863,0.84364 6.93945,0c0.21911,-0.08263 0.40228,-0.23954 0.51758,-0.44336c0.50905,-0.89769 0.90863,-1.83443 1.29492,-2.77539c1.00761,0.13874 2.02053,0.25928 3.05469,0.26758c0.37043,0.002 0.71162,-0.20091 0.88672,-0.52734c1.59439,-1.40678 2.67239,-3.28027 3.0918,-5.35742c0.19114,-0.3152 0.19339,-0.70999 0.00586,-1.02734c-0.52547,-0.88758 -1.13805,-1.70159 -1.76172,-2.50391c0.62421,-0.80268 1.23648,-1.61664 1.76172,-2.50391c0.18947,-0.32003 0.18571,-0.71876 -0.00977,-1.03516c-0.42048,-2.07287 -1.49489,-3.943 -3.08594,-5.34766c-0.1749,-0.32781 -0.51712,-0.53164 -0.88867,-0.5293c-1.03416,0.00829 -2.04708,0.12883 -3.05469,0.26758c-0.38629,-0.94096 -0.78587,-1.8777 -1.29492,-2.77539c-0.1153,-0.20382 -0.29847,-0.36073 -0.51758,-0.44336c-1.12041,-0.42182 -2.29599,-0.63281 -3.4707,-0.63281zM16,5c0.81988,0 1.63234,0.18202 2.42578,0.44141c0.49883,0.91878 0.9557,1.84992 1.31445,2.8125c0.16785,0.45105 0.63316,0.71858 1.10742,0.63672c0.99861,-0.17382 2.03428,-0.24371 3.08008,-0.27148c1.24632,1.10613 2.09044,2.57615 2.42773,4.20898c-0.54861,0.88874 -1.12813,1.74835 -1.78125,2.53125c-0.30949,0.37102 -0.30949,0.91023 0,1.28125c0.65272,0.78343 1.2326,1.64272 1.78125,2.53125c-0.33729,1.63284 -1.18142,3.10285 -2.42773,4.20898c-1.0458,-0.02778 -2.08147,-0.09767 -3.08008,-0.27148c-0.47426,-0.08187 -0.93957,0.18567 -1.10742,0.63672c-0.35876,0.96258 -0.81562,1.89372 -1.31445,2.8125c-1.58687,0.51877 -3.26469,0.51877 -4.85156,0c-0.49881,-0.91875 -0.95375,-1.84995 -1.3125,-2.8125c-0.16799,-0.45189 -0.63445,-0.71961 -1.10937,-0.63672c-0.99853,0.1738 -2.03241,0.2437 -3.07813,0.27148c-1.24633,-1.10615 -2.09241,-2.57612 -2.42969,-4.20898c0.54878,-0.8881 1.13022,-1.74666 1.7832,-2.53125c0.30949,-0.37102 0.30949,-0.91023 0,-1.28125c-0.65306,-0.78384 -1.23237,-1.64417 -1.78125,-2.5332c0.33763,-1.63189 1.18203,-3.10144 2.42773,-4.20703c1.04571,0.02779 2.07959,0.09768 3.07813,0.27148c0.47492,0.08289 0.94139,-0.18483 1.10938,-0.63672c0.35875,-0.96255 0.81369,-1.89375 1.3125,-2.8125c0.79344,-0.25938 1.6059,-0.44141 2.42578,-0.44141zM16,11c-1.58333,0 -2.89811,0.62976 -3.74805,1.58594c-0.84994,0.95618 -1.25195,2.19184 -1.25195,3.41406c0,1.22222 0.40201,2.45788 1.25195,3.41406c0.84994,0.95618 2.16471,1.58594 3.74805,1.58594c1.58333,0 2.89811,-0.62976 3.74805,-1.58594c0.84994,-0.95618 1.25195,-2.19184 1.25195,-3.41406c0,-1.22222 -0.40201,-2.45788 -1.25195,-3.41406c-0.84994,-0.95618 -2.16471,-1.58594 -3.74805,-1.58594zM16,13c1.08333,0 1.76856,0.37024 2.25195,0.91406c0.48339,0.54382 0.74805,1.30816 0.74805,2.08594c0,0.77778 -0.26465,1.54212 -0.74805,2.08594c-0.48339,0.54382 -1.16862,0.91406 -2.25195,0.91406c-1.08333,0 -1.76856,-0.37024 -2.25195,-0.91406c-0.48339,-0.54382 -0.74805,-1.30816 -0.74805,-2.08594c0,-0.77778 0.26465,-1.54212 0.74805,-2.08594c0.48339,-0.54382 1.16862,-0.91406 2.25195,-0.91406z"></path></g></g>
</svg>